<?xml version="1.0" encoding="UTF-8" standalone="no"?>
<!DOCTYPE svg PUBLIC "-//W3C//DTD SVG 1.1//EN" "http://www.w3.org/Graphics/SVG/1.1/DTD/svg11.dtd">
<svg version="1.1" xmlns="http://www.w3.org/2000/svg" xmlns:xlink="http://www.w3.org/1999/xlink" preserveAspectRatio="xMidYMid meet" viewBox="0 0 640 640" width="640" height="640"><defs><path d="M321.35 31.62C379.22 24.98 503.57 74.99 505.07 225.36C506.56 375.73 359.82 421.02 321.35 419.1" id="b9mi3H5v9"></path><path d="M350.93 419.15C350.93 437.16 337.07 451.77 320 451.77C302.93 451.77 289.07 437.16 289.07 419.15C289.07 401.15 302.93 386.53 320 386.53C337.07 386.53 350.93 401.15 350.93 419.15Z" id="b1giVzDlgm"></path><path d="M354.05 31.62C354.05 49.63 339.7 64.24 322.03 64.24C304.36 64.24 290.01 49.63 290.01 31.62C290.01 13.62 304.36 -1 322.03 -1C339.7 -1 354.05 13.62 354.05 31.62Z" id="aVrmCpq7t"></path><path d="M321.35 220.9C263.48 214.26 139.13 264.27 137.63 414.64C136.14 565.01 282.88 610.3 321.35 608.38" id="a4tltLvemf"></path><path d="M287.98 608.56C287.98 626.56 302.33 641.18 320 641.18C337.67 641.18 352.02 626.56 352.02 608.56C352.02 590.55 337.67 575.94 320 575.94C302.33 575.94 287.98 590.55 287.98 608.56Z" id="b6eMiNcv"></path><path d="M291.65 221.05C291.65 239.05 305.51 253.67 322.58 253.67C339.66 253.67 353.52 239.05 353.52 221.05C353.52 203.04 339.66 188.43 322.58 188.43C305.51 188.43 291.65 203.04 291.65 221.05Z" id="c4aOUSkkn1"></path></defs><g><g><g><g><use xlink:href="#b9mi3H5v9" opacity="1" fill-opacity="0" stroke="#ff001b" stroke-width="65" stroke-opacity="1"></use></g></g><g><use xlink:href="#b1giVzDlgm" opacity="1" fill="#ff001b" fill-opacity="1"></use></g><g><use xlink:href="#aVrmCpq7t" opacity="1" fill="#ff001b" fill-opacity="1"></use></g><g><g><use xlink:href="#a4tltLvemf" opacity="1" fill-opacity="0" stroke="#000fff" stroke-width="65" stroke-opacity="1"></use></g></g><g><use xlink:href="#b6eMiNcv" opacity="1" fill="#000fff" fill-opacity="1"></use></g><g><use xlink:href="#c4aOUSkkn1" opacity="1" fill="#000fff" fill-opacity="1"></use></g></g></g></svg>